<svg width="725" height="647" viewBox="0 0 725 647" fill="none" xmlns="http://www.w3.org/2000/svg">
<path d="M540.929 624.906C602.343 594.934 637.941 527.62 671.049 457.941C703.196 388.042 731.893 315.557 723.518 237.292C716.297 158.392 671.239 72.6374 598.733 31.8074C525.072 -8.38854 423.767 -2.80645 327.623 11.1414C232.439 25.3087 142.61 46.9881 85.3491 98.5699C27.8932 151.005 2.24055 232.27 0.60836 314.535C-1.219 397.654 20.0139 481.554 74.9787 537.237C130.139 592.066 219.226 617.824 306.424 634.167C393.817 649.657 480.281 655.952 540.929 624.906Z" fill="url(#paint0_linear_4044_74)"/>
<defs>
<linearGradient id="paint0_linear_4044_74" x1="85.436" y1="-93.9996" x2="570.606" y2="744.2" gradientUnits="userSpaceOnUse">
<stop stop-color="#F87537"/>
<stop offset="1" stop-color="#FBA81F"/>
</linearGradient>
</defs>
</svg>
